<?xml version="1.0" standalone="no"?>
<svg id="logo-e" width="200" height="200" viewBox="0 0 200 200" fill="none" xmlns="http://www.w3.org/2000/svg" data-om-id="a50f805e:128">
        <circle cx="100" cy="100" r="94" fill="none" stroke="rgba(200,169,110,0.2)" stroke-width="0.7" data-om-id="a50f805e:129"/>
        <text x="10" y="162" font-family="Cormorant Garamond, Georgia, serif" font-size="170" font-weight="300" fill="rgba(200,169,110,0.05)" letter-spacing="-5" data-om-id="a50f805e:130">F</text>
        <!-- Klaviertasten -->
        <rect x="62" y="44" width="10" height="24" rx="1" fill="rgba(200,169,110,0.15)" data-om-id="a50f805e:131"/>
        <rect x="74" y="44" width="10" height="24" rx="1" fill="rgba(200,169,110,0.15)" data-om-id="a50f805e:132"/>
        <rect x="86" y="44" width="10" height="24" rx="1" fill="rgba(200,169,110,0.15)" data-om-id="a50f805e:133"/>
        <rect x="98" y="44" width="10" height="24" rx="1" fill="rgba(200,169,110,0.15)" data-om-id="a50f805e:134"/>
        <rect x="110" y="44" width="10" height="24" rx="1" fill="rgba(200,169,110,0.15)" data-om-id="a50f805e:135"/>
        <rect x="122" y="44" width="10" height="24" rx="1" fill="rgba(200,169,110,0.15)" data-om-id="a50f805e:136"/>
        <rect x="134" y="44" width="10" height="24" rx="1" fill="rgba(200,169,110,0.15)" data-om-id="a50f805e:137"/>
        <!-- Schwarze Tasten -->
        <rect x="70" y="44" width="7" height="15" rx="0.5" fill="rgba(200,169,110,0.3)" data-om-id="a50f805e:138"/>
        <rect x="82" y="44" width="7" height="15" rx="0.5" fill="rgba(200,169,110,0.3)" data-om-id="a50f805e:139"/>
        <rect x="106" y="44" width="7" height="15" rx="0.5" fill="rgba(200,169,110,0.3)" data-om-id="a50f805e:140"/>
        <rect x="118" y="44" width="7" height="15" rx="0.5" fill="rgba(200,169,110,0.3)" data-om-id="a50f805e:141"/>
        <rect x="130" y="44" width="7" height="15" rx="0.5" fill="rgba(200,169,110,0.3)" data-om-id="a50f805e:142"/>
        <text x="100" y="106" text-anchor="middle" font-family="Cormorant Garamond, Georgia, serif" font-size="26" font-weight="300" fill="oklch(94% 0.018 80)" letter-spacing="4" data-om-id="a50f805e:143">FRIEDRICH</text>
        <text x="100" y="130" text-anchor="middle" font-family="Cormorant Garamond, Georgia, serif" font-size="18" font-weight="400" fill="oklch(72% 0.085 72)" letter-spacing="8" data-om-id="a50f805e:144">SCHÄFER</text>
        <text x="100" y="152" text-anchor="middle" font-family="Outfit, sans-serif" font-size="7" font-weight="300" fill="rgba(200,169,110,0.4)" letter-spacing="6" data-om-id="a50f805e:145">PIANIST</text>
      </svg>